<?xml version="1.0" encoding="utf-8"?>
<!-- Generator: Adobe Illustrator 16.0.3, SVG Export Plug-In . SVG Version: 6.00 Build 0)  -->
<!DOCTYPE svg PUBLIC "-//W3C//DTD SVG 1.1//EN" "http://www.w3.org/Graphics/SVG/1.1/DTD/svg11.dtd">
<svg version="1.1" id="Layer_1" xmlns="http://www.w3.org/2000/svg" xmlns:xlink="http://www.w3.org/1999/xlink" x="0px"
     y="0px"
     width="40px" height="40px" viewBox="0 0 100 100" enable-background="new 0 0 100 100" xml:space="preserve">
<g id="Layer_2" display="none">
	<rect display="inline" fill="#0055FF" width="100" height="100"/>
</g>
    <g id="Layer_3" display="none">
	<g display="inline">
		<g>
			<path fill="#FFFFFF" d="M47,84.17C47,90.7,41.7,96,35.17,96H16.83C10.3,96,5,90.7,5,84.17V17.83C5,11.3,10.3,6,16.83,6h18.34
				C41.7,6,47,11.3,47,17.83V84.17z M41,17.55c0-3.07-2.49-5.55-5.55-5.55h-17.9C14.49,12,12,14.49,12,17.55v65.9
				C12,86.52,14.49,89,17.55,89h17.9c3.07,0,5.55-2.49,5.55-5.55V17.55z"/>
		</g>
        <g>
			<path fill="#FFFFFF" d="M96,36.17C96,42.7,90.7,48,84.17,48H65.83C59.3,48,54,42.7,54,36.17V17.83C54,11.3,59.3,6,65.83,6h18.34
				C90.7,6,96,11.3,96,17.83V36.17z M89,17.55c0-3.07-2.49-5.55-5.55-5.55h-17.9C62.49,12,60,14.49,60,17.55v17.9
				c0,3.07,2.49,5.55,5.55,5.55h17.9C86.52,41,89,38.51,89,35.45V17.55z"/>
		</g>
        <g>
			<path fill="#FFFFFF" d="M96,84.17C96,90.7,90.7,96,84.17,96H65.83C59.3,96,54,90.7,54,84.17V65.83C54,59.3,59.3,54,65.83,54
				h18.34C90.7,54,96,59.3,96,65.83V84.17z M89,65.55C89,62.48,86.51,60,83.45,60h-17.9C62.49,60,60,62.49,60,65.55v17.9
				C60,86.52,62.49,89,65.55,89h17.9C86.52,89,89,86.51,89,83.45V65.55z"/>
		</g>
	</g>
</g>
    <g id="Layer_1_1_" display="none">
	<g display="inline">
		<path fill="#FFFFFF" d="M32.88,83.29C27.53,83.29,22,79.22,22,70.141V29.97c0-9.08,5.53-13.14,10.88-13.14
			c2.7,0,5.57,0.92,8.43,2.74l29.81,18.85c4.63,2.95,7.3,7.19,7.3,11.65c0,4.45-2.65,8.69-7.27,11.64L41.3,80.55
			C38.45,82.359,35.58,83.29,32.88,83.29z M33.24,23.1c-4.04,0-4.24,4.8-4.24,6.86v40.181C29,72.2,29.2,77,33.24,77
			c1.46,0,3.07-0.609,4.88-1.76l29.739-18.86c2.811-1.79,4.341-4.04,4.341-6.34s-1.57-4.55-4.39-6.34L38.13,24.87
			C36.32,23.71,34.71,23.1,33.24,23.1z"/>
	</g>
</g>
    <path fill="#02CAFF" d="M16.67,50c0-18.38,14.95-33.33,33.33-33.33V10c-22.06,0-40,17.94-40,40c0,22.061,17.94,40,40,40v-6.67
	C31.62,83.33,16.67,68.38,16.67,50z"/>
    <g>
	<g>
		<defs>
			<path id="SVGID_1_" d="M50,10v6.67c18.38,0,33.33,14.95,33.33,33.33S68.38,83.33,50,83.33V90c22.061,0,40-17.939,40-40
				C90,27.94,72.061,10,50,10z"/>
		</defs>
        <linearGradient id="SVGID_2_" gradientUnits="userSpaceOnUse" x1="70" y1="90" x2="70" y2="10.0005">
			<stop offset="0" style="stop-color:#02CAFF;stop-opacity:0"/>
            <stop offset="1" style="stop-color:#02CAFF"/>
		</linearGradient>
        <use xlink:href="#SVGID_1_" overflow="visible" fill="url(#SVGID_2_)"/>
        <clipPath id="SVGID_3_">
			<use xlink:href="#SVGID_1_" overflow="visible"/>
		</clipPath>
	</g>
</g>
</svg>
